<svg width="512px" height="512px" viewBox="0 0 512 512" version="1.1" xmlns="http://www.w3.org/2000/svg" xmlns:xlink="http://www.w3.org/1999/xlink">
    <g id="Symbols" stroke="none" stroke-width="1" fill="none" fill-rule="evenodd">
        <g id="Smooth-Corners">
            <path d="M365.858544,5.90428975e-15 C416.675112,-3.43056238e-15 435.102427,5.29105984 453.680205,15.2265641 C472.257983,25.1620684 486.837932,39.7420171 496.773436,58.3197949 C506.70894,76.8975727 512,95.3248882 512,146.141456 L512,365.858544 C512,416.675112 506.70894,435.102427 496.773436,453.680205 C486.837932,472.257983 472.257983,486.837932 453.680205,496.773436 C435.102427,506.70894 416.675112,512 365.858544,512 L146.141456,512 C95.3248882,512 76.8975727,506.70894 58.3197949,496.773436 C39.7420171,486.837932 25.1620684,472.257983 15.2265641,453.680205 C5.29105984,435.102427 2.28704159e-15,416.675112 -3.93619317e-15,365.858544 L3.93619317e-15,146.141456 C-2.28704159e-15,95.3248882 5.29105984,76.8975727 15.2265641,58.3197949 C25.1620684,39.7420171 39.7420171,25.1620684 58.3197949,15.2265641 C76.8975727,5.29105984 95.3248882,3.43056238e-15 146.141456,-5.90428975e-15 L365.858544,5.90428975e-15 Z" opacity="0"></path>
            <text id="懒大厨" font-family="STYuanti-SC-Bold, Yuanti SC" font-size="90" font-weight="bold" fill="#FF9900">
                <tspan x="118" y="419">懒大厨</tspan>
            </text>
            <path d="M264,63 C329.590958,63 384.008321,109.571369 394.262755,170.599491 C416.004309,181.355376 431,204.13606 431,230.5 C431,263.747486 407.151368,291.296283 376.000916,296.217732 L376.000565,281.006902 C390.260456,273.592192 400,258.683492 400,241.5 C400,217.745819 381.387878,198.338732 357.950682,197.067242 C357.983477,196.214857 358,195.35904 358,194.5 C358,151.145647 315.914766,116 264,116 C216.827087,116 177.770071,145.01851 171.030097,182.846313 C167.93752,182.290268 164.752658,182 161.5,182 C131.952766,182 108,205.952766 108,235.5 C108,255.814334 119.322105,273.484249 136.000227,282.543656 L136.000206,297.639259 C104.413725,288.946656 81,257.259326 81,219.5 C81,178.958228 107.991529,145.416302 143.109969,139.820454 C163.543546,94.5862496 209.982621,63 264,63 Z" id="形状结合" fill="#FF9900"></path>
        </g>
    </g>
</svg>