<?xml version="1.0" standalone="no"?><!DOCTYPE svg PUBLIC "-//W3C//DTD SVG 1.1//EN" "http://www.w3.org/Graphics/SVG/1.1/DTD/svg11.dtd"><svg t="1590140290256" class="icon" viewBox="0 0 1024 1024" version="1.1" xmlns="http://www.w3.org/2000/svg" p-id="2354" width="48" height="48" xmlns:xlink="http://www.w3.org/1999/xlink"><defs><style type="text/css"></style></defs><path d="M425.051 420.6c23-73.4-3.9-171.4-77-242.3-94.5-94.5-231.4-114.4-303.6-39.7-72.2 72.2-54.7 209 39.8 303.6 70.8 70.8 163.2 98.3 235.2 79.1l407.3 407.3c28.5 28.5 74.6 28.5 103.1 0s28.4-74.6 0-103.1L425.051 420.6z m0 0" p-id="2355" fill="#ff9900"></path><path d="M630.951 564l74.4-74.4c16.4 7.5 34 11.6 51.7 11.6 31.9 0 63.8-12.1 88-36.4l179-178.9-38.8-38.8-156.8 156.8c-5 5-11.5 7.5-18.1 7.5-6.5 0-13.1-2.5-18.1-7.5l-7.3-7.3c-4.8-4.8-7.5-11.2-7.5-18.1 0-6.8 2.7-13.3 7.5-18.1l156.8-156.8-47.4-47.4-156.7 156.9c-5 5-11.5 7.5-18 7.5-6.6 0-13.1-2.5-18.1-7.5l-7.3-7.3c-4.8-4.8-7.4-11.2-7.5-18 0-6.8 2.7-13.3 7.5-18.1L851.051 112.9l-38.8-38.8L633.351 253c-23.4 23.4-36.3 54.7-36.3 88 0 14.9 3 29.3 7.9 42.8l-77.1 77.1L630.951 564z m0 0M165.251 823.6c-28.5 28.5-28.5 74.6 0 103.1 28.4 28.5 74.6 28.5 103.1 0l196.2-196.2-103.2-103-196.1 196.1z m0 0" p-id="2356" fill="#ff9900"></path></svg>